<svg xmlns="http://www.w3.org/2000/svg" width="50.545" height="56" viewBox="0 0 50.545 56"><g transform="translate(-1084.698 -829)"><g transform="translate(1085 831)"><rect width="16" height="17" fill="#9183e9"/><rect width="16" height="36" transform="translate(0 18)" fill="#cbc4f3"/></g><g transform="translate(1102 831)"><rect width="16" height="17" fill="#9183e9"/><rect width="16" height="36" transform="translate(0 18)" fill="#cbc4f3"/></g><g transform="translate(1119 831)"><rect width="16" height="17" fill="#9183e9"/><rect width="16" height="36" transform="translate(0 18)" fill="#cbc4f3"/></g><path d="M2801,863.169s5.717,4.324,9,4.858a20.784,20.784,0,0,0,17.333-4.858c7.022-5.923,10.321-6.275,15-6.275a19.909,19.909,0,0,0,8.667-2.227" transform="translate(-1716 -1.497)" fill="none" stroke="#707070" stroke-width="1" stroke-dasharray="2"/><text transform="translate(1089 846)" fill="#fff" font-size="16" font-family="SegoeUI, Segoe UI"><tspan x="0" y="0">1</tspan></text><text transform="translate(1106 846)" fill="#fff" font-size="16" font-family="SegoeUI, Segoe UI"><tspan x="0" y="0">2</tspan></text><text transform="translate(1123 846)" fill="#fff" font-size="16" font-family="SegoeUI, Segoe UI"><tspan x="0" y="0">3</tspan></text></g></svg>