<svg xmlns="http://www.w3.org/2000/svg" xmlns:xlink="http://www.w3.org/1999/xlink" width="450" height="250" viewBox="0 0 450 250">
  <defs>
    <clipPath id="clip-ux">
      <rect width="450" height="250"/>
    </clipPath>
  </defs>
  <g id="ux" clip-path="url(#clip-ux)">
    <rect width="450" height="250" fill="#64a2d1"/>
    <path id="Path_770" data-name="Path 770" d="M11.69.455A9.007,9.007,0,0,1,6.589-.98,9.433,9.433,0,0,1,3.264-4.839,12.271,12.271,0,0,1,2.1-10.22V-24.5H5.04v14.28a9.486,9.486,0,0,0,.779,3.868A6.673,6.673,0,0,0,8.076-3.535a6.081,6.081,0,0,0,3.614,1.05,6.065,6.065,0,0,0,3.64-1.059,6.645,6.645,0,0,0,2.231-2.818,9.611,9.611,0,0,0,.761-3.859V-24.5h2.94v14.28A12.7,12.7,0,0,1,20.6-6.064a10.422,10.422,0,0,1-1.916,3.4A8.781,8.781,0,0,1,15.663-.368,9.305,9.305,0,0,1,11.69.455ZM30.8.333A9.1,9.1,0,0,1,28.044-.2,7.773,7.773,0,0,1,25.7-1.514,4.973,4.973,0,0,1,24.237-3.43l2.52-1.085a2.963,2.963,0,0,0,.945,1.12,5.639,5.639,0,0,0,1.575.84,5.382,5.382,0,0,0,1.8.315,5.36,5.36,0,0,0,1.8-.3,3.314,3.314,0,0,0,1.374-.884A2.02,2.02,0,0,0,34.79-4.83,1.708,1.708,0,0,0,34.2-6.2a4.3,4.3,0,0,0-1.47-.787q-.884-.289-1.794-.551a19.414,19.414,0,0,1-3.22-1.094,6.037,6.037,0,0,1-2.231-1.628,3.848,3.848,0,0,1-.814-2.529,4.533,4.533,0,0,1,.9-2.818,5.885,5.885,0,0,1,2.371-1.837A7.727,7.727,0,0,1,31.1-18.1a8.256,8.256,0,0,1,3.868.91,6.077,6.077,0,0,1,2.608,2.468L35.21-13.335a3.092,3.092,0,0,0-.91-1.111,4.907,4.907,0,0,0-1.4-.761,5.1,5.1,0,0,0-1.61-.3,5.33,5.33,0,0,0-1.9.262,3.213,3.213,0,0,0-1.417.9,2.177,2.177,0,0,0-.534,1.5,1.6,1.6,0,0,0,.569,1.33,4.318,4.318,0,0,0,1.488.726q.919.271,2,.621a22.89,22.89,0,0,1,2.975,1.173,6.674,6.674,0,0,1,2.231,1.662,3.606,3.606,0,0,1,.831,2.468,4.352,4.352,0,0,1-.962,2.809A6.112,6.112,0,0,1,34.081-.228,7.712,7.712,0,0,1,30.8.333ZM48.09.455a8.133,8.133,0,0,1-4.4-1.243,9.2,9.2,0,0,1-3.167-3.334A9.247,9.247,0,0,1,39.34-8.75a9.42,9.42,0,0,1,.682-3.6,9.426,9.426,0,0,1,1.881-2.94,8.747,8.747,0,0,1,2.791-1.986,8.169,8.169,0,0,1,3.4-.717,8.26,8.26,0,0,1,3.631.8,8.386,8.386,0,0,1,2.835,2.214,9.521,9.521,0,0,1,1.768,3.29,10.674,10.674,0,0,1,.429,4.008H42.472a6.344,6.344,0,0,0,.98,2.651,5.733,5.733,0,0,0,1.969,1.846,5.433,5.433,0,0,0,2.669.7A5.2,5.2,0,0,0,50.943-3.3,6.1,6.1,0,0,0,53.007-5.53L56-4.83a9.162,9.162,0,0,1-3.167,3.806A8.091,8.091,0,0,1,48.09.455Zm-5.7-10.448H53.8a5.787,5.787,0,0,0-.945-2.686A6.233,6.233,0,0,0,50.8-14.63a5.232,5.232,0,0,0-2.713-.735,5.236,5.236,0,0,0-2.695.718,6.039,6.039,0,0,0-2.021,1.934A6.375,6.375,0,0,0,42.385-9.993ZM59.728,0V-17.5h2.94v2.187a6.764,6.764,0,0,1,2.345-1.951,6.656,6.656,0,0,1,3.08-.726,7.289,7.289,0,0,1,1.96.262l-1.19,2.94a4.619,4.619,0,0,0-1.4-.227,4.685,4.685,0,0,0-2.406.639,4.835,4.835,0,0,0-1.741,1.724,4.623,4.623,0,0,0-.647,2.415V0ZM80.9,0V-24.5H95.935v2.94H83.843V-14.6h9.9v2.94h-9.9V-2.94H95.935V0ZM98.14,0l6.4-8.785-6.37-8.75H101.8l4.567,6.23,4.55-6.23h3.622l-6.37,8.75L114.573,0H110.95l-4.585-6.3-4.6,6.3Zm22.4,8.75H117.6V-17.5h2.94v2.992A7.219,7.219,0,0,1,122.92-17a6.408,6.408,0,0,1,3.535-.954,8.975,8.975,0,0,1,3.579.717,9.21,9.21,0,0,1,2.931,1.986,9.415,9.415,0,0,1,1.977,2.931,8.912,8.912,0,0,1,.717,3.57,9.037,9.037,0,0,1-.717,3.587,9.359,9.359,0,0,1-1.977,2.949,9.21,9.21,0,0,1-2.931,1.986,8.975,8.975,0,0,1-3.579.718,6.408,6.408,0,0,1-3.535-.954,7.219,7.219,0,0,1-2.38-2.494ZM126.42-15.1a5.211,5.211,0,0,0-2.975.858,5.663,5.663,0,0,0-1.969,2.292,7.284,7.284,0,0,0-.691,3.2,7.356,7.356,0,0,0,.691,3.2,5.662,5.662,0,0,0,1.96,2.31,5.2,5.2,0,0,0,2.984.857,5.951,5.951,0,0,0,3.115-.849,6.489,6.489,0,0,0,2.275-2.293,6.2,6.2,0,0,0,.857-3.229,6.235,6.235,0,0,0-.84-3.194,6.418,6.418,0,0,0-2.258-2.3A5.968,5.968,0,0,0,126.42-15.1ZM146.16.455a8.133,8.133,0,0,1-4.4-1.243,9.2,9.2,0,0,1-3.167-3.334A9.248,9.248,0,0,1,137.41-8.75a9.42,9.42,0,0,1,.682-3.6,9.426,9.426,0,0,1,1.881-2.94,8.747,8.747,0,0,1,2.791-1.986,8.169,8.169,0,0,1,3.4-.717,8.26,8.26,0,0,1,3.631.8,8.386,8.386,0,0,1,2.835,2.214,9.521,9.521,0,0,1,1.768,3.29,10.674,10.674,0,0,1,.429,4.008h-14.28a6.344,6.344,0,0,0,.98,2.651,5.733,5.733,0,0,0,1.969,1.846,5.433,5.433,0,0,0,2.669.7,5.2,5.2,0,0,0,2.852-.814,6.1,6.1,0,0,0,2.065-2.231l2.993.7A9.162,9.162,0,0,1,150.9-1.024,8.091,8.091,0,0,1,146.16.455ZM140.455-9.993h11.41a5.787,5.787,0,0,0-.945-2.686,6.233,6.233,0,0,0-2.048-1.951,5.232,5.232,0,0,0-2.712-.735,5.236,5.236,0,0,0-2.7.718,6.039,6.039,0,0,0-2.021,1.934A6.375,6.375,0,0,0,140.455-9.993ZM157.8,0V-17.5h2.94v2.187a6.765,6.765,0,0,1,2.345-1.951,6.656,6.656,0,0,1,3.08-.726,7.289,7.289,0,0,1,1.96.262l-1.19,2.94a4.619,4.619,0,0,0-1.4-.227,4.685,4.685,0,0,0-2.406.639,4.835,4.835,0,0,0-1.741,1.724,4.623,4.623,0,0,0-.648,2.415V0Zm12.46-17.5h2.94V0h-2.94Zm1.5-2.853a1.624,1.624,0,0,1-1.173-.455,1.514,1.514,0,0,1-.472-1.138,1.514,1.514,0,0,1,.472-1.137,1.6,1.6,0,0,1,1.155-.455,1.6,1.6,0,0,1,1.155.455,1.514,1.514,0,0,1,.472,1.137,1.528,1.528,0,0,1-.464,1.138A1.573,1.573,0,0,1,171.763-20.353ZM184.87.455a8.133,8.133,0,0,1-4.4-1.243A9.2,9.2,0,0,1,177.3-4.121,9.248,9.248,0,0,1,176.12-8.75a9.42,9.42,0,0,1,.682-3.6,9.426,9.426,0,0,1,1.881-2.94,8.747,8.747,0,0,1,2.791-1.986,8.169,8.169,0,0,1,3.4-.717,8.26,8.26,0,0,1,3.631.8,8.386,8.386,0,0,1,2.835,2.214,9.521,9.521,0,0,1,1.768,3.29,10.674,10.674,0,0,1,.429,4.008h-14.28a6.344,6.344,0,0,0,.98,2.651A5.733,5.733,0,0,0,182.2-3.185a5.433,5.433,0,0,0,2.669.7,5.2,5.2,0,0,0,2.852-.814,6.1,6.1,0,0,0,2.065-2.231l2.993.7a9.162,9.162,0,0,1-3.168,3.806A8.091,8.091,0,0,1,184.87.455ZM179.165-9.993h11.41a5.787,5.787,0,0,0-.945-2.686,6.233,6.233,0,0,0-2.048-1.951,5.232,5.232,0,0,0-2.712-.735,5.236,5.236,0,0,0-2.7.718,6.039,6.039,0,0,0-2.021,1.934A6.375,6.375,0,0,0,179.165-9.993Zm32.813-.892V0h-2.94V-10.238a4.623,4.623,0,0,0-.648-2.415,4.857,4.857,0,0,0-1.732-1.724,4.671,4.671,0,0,0-2.415-.639,4.685,4.685,0,0,0-2.406.639,4.835,4.835,0,0,0-1.741,1.724,4.623,4.623,0,0,0-.648,2.415V0h-2.94V-17.5h2.94v2.187a6.765,6.765,0,0,1,2.345-1.951,6.656,6.656,0,0,1,3.08-.726,6.92,6.92,0,0,1,3.579.954,7.176,7.176,0,0,1,2.573,2.564A6.906,6.906,0,0,1,211.978-10.885ZM227.185-4.62,229.81-3.2a8.9,8.9,0,0,1-3.019,2.66,8.146,8.146,0,0,1-3.964,1,8.133,8.133,0,0,1-4.4-1.243,9.2,9.2,0,0,1-3.168-3.334,9.248,9.248,0,0,1-1.181-4.629,9.42,9.42,0,0,1,.682-3.6,9.426,9.426,0,0,1,1.881-2.94,8.747,8.747,0,0,1,2.791-1.986,8.169,8.169,0,0,1,3.4-.717,8.146,8.146,0,0,1,3.964,1,8.829,8.829,0,0,1,3.019,2.678L227.185-12.9a5.829,5.829,0,0,0-1.995-1.593,5.36,5.36,0,0,0-2.363-.56,5.262,5.262,0,0,0-2.949.866,6.214,6.214,0,0,0-2.091,2.3,6.521,6.521,0,0,0-.77,3.133,6.412,6.412,0,0,0,.779,3.124,6.234,6.234,0,0,0,2.1,2.284,5.271,5.271,0,0,0,2.931.858,5.172,5.172,0,0,0,2.432-.6A6.238,6.238,0,0,0,227.185-4.62ZM240.345.455a8.133,8.133,0,0,1-4.4-1.243,9.2,9.2,0,0,1-3.167-3.334A9.248,9.248,0,0,1,231.6-8.75a9.42,9.42,0,0,1,.682-3.6,9.426,9.426,0,0,1,1.881-2.94,8.747,8.747,0,0,1,2.791-1.986,8.169,8.169,0,0,1,3.4-.717,8.26,8.26,0,0,1,3.631.8,8.386,8.386,0,0,1,2.835,2.214,9.521,9.521,0,0,1,1.768,3.29,10.674,10.674,0,0,1,.429,4.008h-14.28a6.344,6.344,0,0,0,.98,2.651,5.733,5.733,0,0,0,1.969,1.846,5.433,5.433,0,0,0,2.669.7A5.2,5.2,0,0,0,243.2-3.3a6.1,6.1,0,0,0,2.065-2.231l2.993.7a9.162,9.162,0,0,1-3.168,3.806A8.091,8.091,0,0,1,240.345.455ZM234.64-9.993h11.41a5.787,5.787,0,0,0-.945-2.686,6.233,6.233,0,0,0-2.048-1.951,5.232,5.232,0,0,0-2.712-.735,5.236,5.236,0,0,0-2.7.718,6.039,6.039,0,0,0-2.021,1.934A6.375,6.375,0,0,0,234.64-9.993Z" transform="translate(100 41)" fill="#fff"/>
    <g id="ux-2" data-name="ux">
      <path id="Path_763" data-name="Path 763" d="M57,0A57,57,0,1,1,0,57,57,57,0,0,1,57,0Z" transform="translate(124 117)" fill="#feded8" opacity="0.81"/>
      <path id="Path_765" data-name="Path 765" d="M57,0A57,57,0,1,1,0,57,57,57,0,0,1,57,0Z" transform="translate(199 117)" fill="#fceec9" opacity="0.81"/>
      <path id="Path_764" data-name="Path 764" d="M57,0A57,57,0,1,1,0,57,57,57,0,0,1,57,0Z" transform="translate(161 66)" fill="#eefdff" opacity="0.81"/>
      <path id="Path_762" data-name="Path 762" d="M1367-2515.385c-5.889,5.733-22.029,23.077-19.07,46.746,19.434,4.591,31.448,2.139,39.048-.926C1387.591-2495.31,1373.125-2509.775,1367-2515.385Z" transform="translate(-1149 2646)" fill="#6392d8"/>
      <path id="Path_766" data-name="Path 766" d="M5.678.221A4.375,4.375,0,0,1,3.2-.476,4.582,4.582,0,0,1,1.585-2.35,5.96,5.96,0,0,1,1.02-4.964V-11.9H2.448v6.936a4.607,4.607,0,0,0,.378,1.879,3.241,3.241,0,0,0,1.1,1.368,2.954,2.954,0,0,0,1.755.51,2.946,2.946,0,0,0,1.768-.514A3.227,3.227,0,0,0,8.53-3.09,4.668,4.668,0,0,0,8.9-4.964V-11.9h1.428v6.936A6.167,6.167,0,0,1,10-2.945a5.062,5.062,0,0,1-.931,1.653A4.265,4.265,0,0,1,7.608-.179,4.52,4.52,0,0,1,5.678.221ZM11.858,0l4.36-5.984L11.909-11.9h1.76l3.426,4.709L20.528-11.9h1.76l-4.3,5.916L22.338,0H20.57L17.094-4.76,13.634,0Z" transform="translate(207 168)" fill="#fff"/>
      <path id="Path_768" data-name="Path 768" d="M5.678.221A4.375,4.375,0,0,1,3.2-.476,4.582,4.582,0,0,1,1.585-2.35,5.96,5.96,0,0,1,1.02-4.964V-11.9H2.448v6.936a4.607,4.607,0,0,0,.378,1.879,3.241,3.241,0,0,0,1.1,1.368,2.954,2.954,0,0,0,1.755.51,2.946,2.946,0,0,0,1.768-.514A3.227,3.227,0,0,0,8.53-3.09,4.668,4.668,0,0,0,8.9-4.964V-11.9h1.428v6.936A6.167,6.167,0,0,1,10-2.945a5.062,5.062,0,0,1-.931,1.653A4.265,4.265,0,0,1,7.608-.179,4.52,4.52,0,0,1,5.678.221ZM14.96.162A4.418,4.418,0,0,1,13.621-.1a3.776,3.776,0,0,1-1.139-.638,2.416,2.416,0,0,1-.71-.931L13-2.193a1.439,1.439,0,0,0,.459.544,2.739,2.739,0,0,0,.765.408,2.614,2.614,0,0,0,.875.153,2.6,2.6,0,0,0,.875-.145,1.609,1.609,0,0,0,.667-.429.981.981,0,0,0,.259-.684.829.829,0,0,0-.285-.667A2.089,2.089,0,0,0,15.9-3.4q-.429-.14-.871-.268a9.43,9.43,0,0,1-1.564-.531,2.932,2.932,0,0,1-1.084-.791,1.869,1.869,0,0,1-.4-1.228,2.2,2.2,0,0,1,.438-1.369,2.858,2.858,0,0,1,1.152-.893,3.753,3.753,0,0,1,1.53-.314,4.01,4.01,0,0,1,1.879.442,2.952,2.952,0,0,1,1.266,1.2L17.1-6.477a1.5,1.5,0,0,0-.442-.54,2.383,2.383,0,0,0-.68-.37,2.477,2.477,0,0,0-.782-.144,2.589,2.589,0,0,0-.922.127,1.56,1.56,0,0,0-.689.438,1.058,1.058,0,0,0-.259.727.778.778,0,0,0,.276.646,2.1,2.1,0,0,0,.722.353q.446.132.973.3a11.118,11.118,0,0,1,1.445.57,3.241,3.241,0,0,1,1.084.807,1.752,1.752,0,0,1,.4,1.2A2.114,2.114,0,0,1,17.765-1a2.969,2.969,0,0,1-1.211.888A3.746,3.746,0,0,1,14.96.162Zm8.4.059a3.95,3.95,0,0,1-2.138-.6A4.467,4.467,0,0,1,19.682-2a4.492,4.492,0,0,1-.574-2.248A4.575,4.575,0,0,1,19.44-6a4.579,4.579,0,0,1,.914-1.428,4.249,4.249,0,0,1,1.356-.965,3.968,3.968,0,0,1,1.649-.348,4.012,4.012,0,0,1,1.764.387A4.073,4.073,0,0,1,26.5-7.276a4.625,4.625,0,0,1,.858,1.6,5.184,5.184,0,0,1,.208,1.947H20.63a3.081,3.081,0,0,0,.476,1.288,2.785,2.785,0,0,0,.956.9,2.639,2.639,0,0,0,1.3.34,2.525,2.525,0,0,0,1.385-.4,2.962,2.962,0,0,0,1-1.084l1.454.34A4.45,4.45,0,0,1,25.662-.5,3.93,3.93,0,0,1,23.358.221ZM20.587-4.854h5.542a2.811,2.811,0,0,0-.459-1.3,3.027,3.027,0,0,0-.994-.948,2.541,2.541,0,0,0-1.318-.357,2.543,2.543,0,0,0-1.309.349,2.933,2.933,0,0,0-.982.939A3.1,3.1,0,0,0,20.587-4.854ZM29.011,0V-8.5h1.428v1.062a3.286,3.286,0,0,1,1.139-.948,3.233,3.233,0,0,1,1.5-.353,3.54,3.54,0,0,1,.952.127l-.578,1.428a2.243,2.243,0,0,0-.68-.11,2.276,2.276,0,0,0-1.169.31,2.349,2.349,0,0,0-.846.837,2.245,2.245,0,0,0-.315,1.173V0Zm8.645.162A4.418,4.418,0,0,1,36.316-.1a3.776,3.776,0,0,1-1.139-.638,2.416,2.416,0,0,1-.71-.931l1.224-.527a1.439,1.439,0,0,0,.459.544,2.739,2.739,0,0,0,.765.408,2.614,2.614,0,0,0,.875.153,2.6,2.6,0,0,0,.875-.145,1.61,1.61,0,0,0,.667-.429.981.981,0,0,0,.259-.684.829.829,0,0,0-.285-.667,2.089,2.089,0,0,0-.714-.382q-.429-.14-.871-.268a9.43,9.43,0,0,1-1.564-.531,2.932,2.932,0,0,1-1.084-.791,1.869,1.869,0,0,1-.4-1.228,2.2,2.2,0,0,1,.438-1.369,2.858,2.858,0,0,1,1.152-.893,3.753,3.753,0,0,1,1.53-.314,4.01,4.01,0,0,1,1.879.442,2.952,2.952,0,0,1,1.266,1.2L39.8-6.477a1.5,1.5,0,0,0-.442-.54,2.383,2.383,0,0,0-.68-.37,2.477,2.477,0,0,0-.782-.144,2.589,2.589,0,0,0-.922.127,1.56,1.56,0,0,0-.688.438,1.058,1.058,0,0,0-.259.727.778.778,0,0,0,.276.646,2.1,2.1,0,0,0,.722.353q.446.132.973.3a11.118,11.118,0,0,1,1.445.57,3.241,3.241,0,0,1,1.084.807,1.752,1.752,0,0,1,.4,1.2A2.114,2.114,0,0,1,40.46-1a2.969,2.969,0,0,1-1.211.888A3.746,3.746,0,0,1,37.655.162Z" transform="translate(147 200)" fill="#7b7b7b"/>
      <path id="Path_767" data-name="Path 767" d="M1.02,0V-11.9H5.126a3.568,3.568,0,0,1,1.611.361,2.784,2.784,0,0,1,1.152,1.05A3.078,3.078,0,0,1,8.313-8.84a2.906,2.906,0,0,1-.174,1,2.56,2.56,0,0,1-.476.824,1.5,1.5,0,0,1-.684.463,2.069,2.069,0,0,1,.91.48,2.824,2.824,0,0,1,.608.8,3.758,3.758,0,0,1,.336.96,4.859,4.859,0,0,1,.1.969A3.342,3.342,0,0,1,8.487-1.6,3.216,3.216,0,0,1,7.293-.425,3.28,3.28,0,0,1,5.644,0ZM2.448-1.258H5.517a1.964,1.964,0,0,0,1.067-.3,2.215,2.215,0,0,0,.769-.829,2.434,2.434,0,0,0,.289-1.19,2.258,2.258,0,0,0-.289-1.109,2.4,2.4,0,0,0-.769-.846,1.87,1.87,0,0,0-1.067-.323H2.448Zm0-5.831H4.99a2.025,2.025,0,0,0,1.339-.463,1.593,1.593,0,0,0,.557-1.3A1.623,1.623,0,0,0,6.328-10.2a2.074,2.074,0,0,0-1.339-.446H2.448ZM10.1-3.23V-8.5h1.428v4.955a2.245,2.245,0,0,0,.314,1.173,2.349,2.349,0,0,0,.846.837,2.276,2.276,0,0,0,1.169.31,2.246,2.246,0,0,0,1.169-.31,2.37,2.37,0,0,0,.837-.837,2.245,2.245,0,0,0,.315-1.173V-8.5H17.6L17.612,0H16.184l-.009-1.08a3.286,3.286,0,0,1-1.139.948,3.215,3.215,0,0,1-1.488.353,3.361,3.361,0,0,1-1.738-.463,3.486,3.486,0,0,1-1.249-1.245A3.354,3.354,0,0,1,10.1-3.23ZM21.9.162A4.418,4.418,0,0,1,20.566-.1a3.776,3.776,0,0,1-1.139-.638,2.416,2.416,0,0,1-.71-.931l1.224-.527a1.439,1.439,0,0,0,.459.544,2.739,2.739,0,0,0,.765.408,2.614,2.614,0,0,0,.875.153,2.6,2.6,0,0,0,.875-.145,1.609,1.609,0,0,0,.667-.429.981.981,0,0,0,.259-.684.829.829,0,0,0-.285-.667,2.089,2.089,0,0,0-.714-.382q-.429-.14-.871-.268a9.43,9.43,0,0,1-1.564-.531,2.932,2.932,0,0,1-1.084-.791,1.869,1.869,0,0,1-.4-1.228,2.2,2.2,0,0,1,.438-1.369,2.858,2.858,0,0,1,1.152-.893,3.753,3.753,0,0,1,1.53-.314,4.01,4.01,0,0,1,1.878.442,2.952,2.952,0,0,1,1.267,1.2l-1.147.671a1.5,1.5,0,0,0-.442-.54,2.384,2.384,0,0,0-.68-.37,2.477,2.477,0,0,0-.782-.144,2.589,2.589,0,0,0-.922.127,1.56,1.56,0,0,0-.688.438,1.058,1.058,0,0,0-.259.727.778.778,0,0,0,.276.646,2.1,2.1,0,0,0,.722.353q.446.132.973.3a11.118,11.118,0,0,1,1.445.57,3.241,3.241,0,0,1,1.084.807,1.752,1.752,0,0,1,.4,1.2A2.114,2.114,0,0,1,24.709-1,2.969,2.969,0,0,1,23.5-.111,3.746,3.746,0,0,1,21.9.162ZM26.528-8.5h1.428V0H26.528Zm.731-1.386a.789.789,0,0,1-.569-.221.735.735,0,0,1-.229-.553.735.735,0,0,1,.229-.552.778.778,0,0,1,.561-.221.778.778,0,0,1,.561.221.735.735,0,0,1,.229.552.742.742,0,0,1-.225.553A.764.764,0,0,1,27.259-9.886Zm10.217,4.6V0H36.049V-4.973a2.245,2.245,0,0,0-.314-1.173,2.359,2.359,0,0,0-.842-.837,2.269,2.269,0,0,0-1.173-.31,2.276,2.276,0,0,0-1.169.31,2.349,2.349,0,0,0-.846.837,2.245,2.245,0,0,0-.315,1.173V0H29.962V-8.5H31.39v1.062a3.286,3.286,0,0,1,1.139-.948,3.233,3.233,0,0,1,1.5-.353,3.361,3.361,0,0,1,1.738.463,3.486,3.486,0,0,1,1.25,1.245A3.354,3.354,0,0,1,37.477-5.287ZM42.746.221a3.95,3.95,0,0,1-2.138-.6A4.467,4.467,0,0,1,39.07-2,4.492,4.492,0,0,1,38.5-4.25,4.575,4.575,0,0,1,38.828-6a4.579,4.579,0,0,1,.914-1.428A4.249,4.249,0,0,1,41.1-8.39a3.968,3.968,0,0,1,1.649-.348,4.012,4.012,0,0,1,1.764.387,4.073,4.073,0,0,1,1.377,1.075,4.625,4.625,0,0,1,.859,1.6,5.184,5.184,0,0,1,.208,1.947H40.018a3.081,3.081,0,0,0,.476,1.288,2.785,2.785,0,0,0,.956.9,2.639,2.639,0,0,0,1.3.34,2.525,2.525,0,0,0,1.386-.4,2.962,2.962,0,0,0,1-1.084l1.454.34A4.45,4.45,0,0,1,45.05-.5,3.93,3.93,0,0,1,42.746.221ZM39.975-4.854h5.542a2.811,2.811,0,0,0-.459-1.3,3.027,3.027,0,0,0-.994-.948,2.541,2.541,0,0,0-1.318-.357,2.543,2.543,0,0,0-1.309.349,2.933,2.933,0,0,0-.982.939A3.1,3.1,0,0,0,39.975-4.854ZM51.026.162A4.418,4.418,0,0,1,49.687-.1a3.776,3.776,0,0,1-1.139-.638,2.416,2.416,0,0,1-.71-.931l1.224-.527a1.439,1.439,0,0,0,.459.544,2.739,2.739,0,0,0,.765.408,2.614,2.614,0,0,0,.875.153,2.6,2.6,0,0,0,.875-.145,1.61,1.61,0,0,0,.667-.429.981.981,0,0,0,.259-.684.829.829,0,0,0-.285-.667,2.089,2.089,0,0,0-.714-.382q-.429-.14-.871-.268a9.43,9.43,0,0,1-1.564-.531,2.932,2.932,0,0,1-1.084-.791,1.869,1.869,0,0,1-.4-1.228,2.2,2.2,0,0,1,.438-1.369,2.858,2.858,0,0,1,1.152-.893,3.753,3.753,0,0,1,1.53-.314,4.01,4.01,0,0,1,1.879.442,2.952,2.952,0,0,1,1.266,1.2l-1.147.671a1.5,1.5,0,0,0-.442-.54,2.383,2.383,0,0,0-.68-.37,2.477,2.477,0,0,0-.782-.144,2.589,2.589,0,0,0-.922.127,1.56,1.56,0,0,0-.688.438,1.058,1.058,0,0,0-.259.727.778.778,0,0,0,.276.646,2.1,2.1,0,0,0,.722.353q.446.132.973.3a11.118,11.118,0,0,1,1.445.57,3.241,3.241,0,0,1,1.084.807,1.752,1.752,0,0,1,.4,1.2A2.114,2.114,0,0,1,53.831-1a2.969,2.969,0,0,1-1.211.888A3.746,3.746,0,0,1,51.026.162Zm7.327,0A4.418,4.418,0,0,1,57.014-.1a3.776,3.776,0,0,1-1.139-.638,2.416,2.416,0,0,1-.71-.931l1.224-.527a1.439,1.439,0,0,0,.459.544,2.739,2.739,0,0,0,.765.408,2.614,2.614,0,0,0,.875.153,2.6,2.6,0,0,0,.875-.145,1.609,1.609,0,0,0,.667-.429.981.981,0,0,0,.259-.684.829.829,0,0,0-.285-.667,2.089,2.089,0,0,0-.714-.382q-.429-.14-.871-.268a9.43,9.43,0,0,1-1.564-.531,2.932,2.932,0,0,1-1.084-.791,1.869,1.869,0,0,1-.4-1.228,2.2,2.2,0,0,1,.438-1.369,2.858,2.858,0,0,1,1.152-.893,3.753,3.753,0,0,1,1.53-.314,4.01,4.01,0,0,1,1.879.442,2.952,2.952,0,0,1,1.266,1.2l-1.147.671a1.5,1.5,0,0,0-.442-.54,2.383,2.383,0,0,0-.68-.37,2.477,2.477,0,0,0-.782-.144,2.589,2.589,0,0,0-.922.127,1.56,1.56,0,0,0-.688.438,1.058,1.058,0,0,0-.259.727A.778.778,0,0,0,57-5.593a2.1,2.1,0,0,0,.723.353q.446.132.973.3a11.118,11.118,0,0,1,1.445.57,3.241,3.241,0,0,1,1.084.807,1.752,1.752,0,0,1,.4,1.2A2.114,2.114,0,0,1,61.158-1a2.969,2.969,0,0,1-1.211.888A3.746,3.746,0,0,1,58.353.162Z" transform="translate(189 104)" fill="#7b7b7b"/>
      <path id="Path_769" data-name="Path 769" d="M10.022-11.9v1.428H6.061V0H4.633V-10.472H.68V-11.9ZM14.136.221A3.95,3.95,0,0,1,12-.383,4.467,4.467,0,0,1,10.459-2,4.492,4.492,0,0,1,9.886-4.25,4.575,4.575,0,0,1,10.217-6a4.579,4.579,0,0,1,.914-1.428,4.249,4.249,0,0,1,1.356-.965,3.968,3.968,0,0,1,1.649-.348,4.012,4.012,0,0,1,1.764.387,4.073,4.073,0,0,1,1.377,1.075,4.625,4.625,0,0,1,.858,1.6,5.184,5.184,0,0,1,.208,1.947H11.407a3.081,3.081,0,0,0,.476,1.288,2.785,2.785,0,0,0,.956.9,2.639,2.639,0,0,0,1.3.34,2.525,2.525,0,0,0,1.385-.4,2.962,2.962,0,0,0,1-1.084l1.454.34A4.45,4.45,0,0,1,16.439-.5,3.93,3.93,0,0,1,14.136.221ZM11.365-4.854h5.542a2.811,2.811,0,0,0-.459-1.3,3.027,3.027,0,0,0-.994-.948,2.541,2.541,0,0,0-1.318-.357,2.543,2.543,0,0,0-1.309.349,2.933,2.933,0,0,0-.982.939A3.1,3.1,0,0,0,11.365-4.854Zm14.22,2.61,1.275.688A4.323,4.323,0,0,1,25.394-.264a3.957,3.957,0,0,1-1.925.485,3.95,3.95,0,0,1-2.138-.6A4.467,4.467,0,0,1,19.792-2a4.492,4.492,0,0,1-.574-2.248A4.575,4.575,0,0,1,19.55-6a4.579,4.579,0,0,1,.914-1.428,4.249,4.249,0,0,1,1.356-.965,3.968,3.968,0,0,1,1.649-.348,3.957,3.957,0,0,1,1.925.484,4.288,4.288,0,0,1,1.466,1.3l-1.275.688a2.831,2.831,0,0,0-.969-.773,2.6,2.6,0,0,0-1.148-.272,2.556,2.556,0,0,0-1.432.421,3.018,3.018,0,0,0-1.016,1.118,3.167,3.167,0,0,0-.374,1.522,3.114,3.114,0,0,0,.378,1.517,3.028,3.028,0,0,0,1.02,1.109,2.56,2.56,0,0,0,1.424.417A2.512,2.512,0,0,0,24.65-1.5,3.03,3.03,0,0,0,25.585-2.244ZM35.751-5.287V0H34.323V-4.973a2.245,2.245,0,0,0-.314-1.173,2.359,2.359,0,0,0-.841-.837,2.269,2.269,0,0,0-1.173-.31,2.276,2.276,0,0,0-1.169.31,2.349,2.349,0,0,0-.846.837,2.245,2.245,0,0,0-.315,1.173V0H28.237V-12.75h1.428v5.313A3.286,3.286,0,0,1,30.8-8.385a3.233,3.233,0,0,1,1.5-.353,3.361,3.361,0,0,1,1.738.463,3.486,3.486,0,0,1,1.25,1.245A3.354,3.354,0,0,1,35.751-5.287Zm9.214,0V0H43.537V-4.973a2.245,2.245,0,0,0-.314-1.173,2.359,2.359,0,0,0-.841-.837,2.269,2.269,0,0,0-1.173-.31,2.276,2.276,0,0,0-1.169.31,2.349,2.349,0,0,0-.846.837,2.245,2.245,0,0,0-.314,1.173V0H37.451V-8.5h1.428v1.062a3.286,3.286,0,0,1,1.139-.948,3.233,3.233,0,0,1,1.5-.353,3.361,3.361,0,0,1,1.738.463A3.486,3.486,0,0,1,44.5-7.03,3.354,3.354,0,0,1,44.965-5.287ZM50.235.221a3.95,3.95,0,0,1-2.138-.6A4.467,4.467,0,0,1,46.559-2a4.492,4.492,0,0,1-.574-2.248A4.575,4.575,0,0,1,46.316-6a4.579,4.579,0,0,1,.914-1.428,4.249,4.249,0,0,1,1.356-.965,3.968,3.968,0,0,1,1.649-.348,3.95,3.95,0,0,1,2.138.6,4.457,4.457,0,0,1,1.538,1.624,4.532,4.532,0,0,1,.574,2.261,4.521,4.521,0,0,1-.332,1.734,4.592,4.592,0,0,1-.914,1.424,4.262,4.262,0,0,1-1.352.965A3.959,3.959,0,0,1,50.235.221Zm0-1.428a2.57,2.57,0,0,0,1.441-.421,2.993,2.993,0,0,0,1.011-1.114,3.154,3.154,0,0,0,.37-1.509,3.156,3.156,0,0,0-.378-1.53,3.032,3.032,0,0,0-1.016-1.114,2.554,2.554,0,0,0-1.428-.416,2.55,2.55,0,0,0-1.437.421,3.032,3.032,0,0,0-1.012,1.118,3.167,3.167,0,0,0-.374,1.522A3.138,3.138,0,0,0,47.8-2.707a2.947,2.947,0,0,0,1.028,1.1A2.611,2.611,0,0,0,50.235-1.207ZM55.819,0V-12.75h1.428V0Zm7.131.221a3.95,3.95,0,0,1-2.138-.6A4.467,4.467,0,0,1,59.275-2,4.492,4.492,0,0,1,58.7-4.25,4.575,4.575,0,0,1,59.032-6a4.579,4.579,0,0,1,.914-1.428A4.249,4.249,0,0,1,61.3-8.39a3.968,3.968,0,0,1,1.649-.348,3.95,3.95,0,0,1,2.138.6,4.457,4.457,0,0,1,1.539,1.624A4.532,4.532,0,0,1,67.2-4.25a4.521,4.521,0,0,1-.331,1.734,4.592,4.592,0,0,1-.914,1.424A4.262,4.262,0,0,1,64.6-.127,3.959,3.959,0,0,1,62.951.221Zm0-1.428a2.57,2.57,0,0,0,1.441-.421A2.993,2.993,0,0,0,65.4-2.741a3.154,3.154,0,0,0,.37-1.509,3.156,3.156,0,0,0-.378-1.53,3.032,3.032,0,0,0-1.016-1.114,2.554,2.554,0,0,0-1.428-.416,2.55,2.55,0,0,0-1.436.421A3.032,3.032,0,0,0,60.5-5.772a3.167,3.167,0,0,0-.374,1.522,3.138,3.138,0,0,0,.382,1.543,2.947,2.947,0,0,0,1.028,1.1A2.611,2.611,0,0,0,62.951-1.207ZM75.2-8.5h1.428V.272a3.475,3.475,0,0,1-.361,1.568,4.118,4.118,0,0,1-.973,1.266,4.582,4.582,0,0,1-1.394.842,4.494,4.494,0,0,1-1.632.3,3.908,3.908,0,0,1-1.708-.4A4.789,4.789,0,0,1,69.118,2.8a3.987,3.987,0,0,1-.888-1.475L69.538.731a2.618,2.618,0,0,0,.582,1.058,3.181,3.181,0,0,0,.986.748,2.614,2.614,0,0,0,1.16.276,3.069,3.069,0,0,0,1.084-.2,3.309,3.309,0,0,0,.943-.54,2.583,2.583,0,0,0,.663-.808,2.123,2.123,0,0,0,.242-1V-1.42A3.522,3.522,0,0,1,74.056-.234,3,3,0,0,1,72.4.221a4.146,4.146,0,0,1-1.691-.348,4.341,4.341,0,0,1-1.385-.965,4.6,4.6,0,0,1-.935-1.424,4.422,4.422,0,0,1-.34-1.734,4.453,4.453,0,0,1,.34-1.738,4.586,4.586,0,0,1,.935-1.428,4.341,4.341,0,0,1,1.385-.965A4.146,4.146,0,0,1,72.4-8.73a3.018,3.018,0,0,1,1.653.451A3.459,3.459,0,0,1,75.2-7.089ZM72.411-1.165a2.436,2.436,0,0,0,1.432-.425,2.806,2.806,0,0,0,.939-1.131,3.552,3.552,0,0,0,.331-1.53A3.545,3.545,0,0,0,74.779-5.8a2.812,2.812,0,0,0-.943-1.122,2.439,2.439,0,0,0-1.424-.421,2.694,2.694,0,0,0-1.462.416A3.016,3.016,0,0,0,69.9-5.81a3.175,3.175,0,0,0-.387,1.56,3.121,3.121,0,0,0,.4,1.56,3.062,3.062,0,0,0,1.054,1.114A2.678,2.678,0,0,0,72.411-1.165ZM83.929-8.5h1.513L80.793,4.25H79.28L80.818,0,77.767-8.5h1.564l2.2,6.536Z" transform="translate(215 200)" fill="#7b7b7b"/>
    </g>
  </g>
</svg>
