<svg xmlns="http://www.w3.org/2000/svg" width="83.715" height="55.399" viewBox="0 0 83.715 55.399"><g transform="translate(-699 -888.101)"><g transform="translate(86 -12)"><path d="M3.466,0H25.249a3.466,3.466,0,0,1,3.466,3.466V51.933A3.466,3.466,0,0,1,25.249,55.4H3.466A3.466,3.466,0,0,1,0,51.933V3.466A3.466,3.466,0,0,1,3.466,0Z" transform="translate(613 900.101)" fill="#3023af"/><line x2="28.076" transform="translate(613.319 943.057)" fill="none"/><circle cx="2.871" cy="2.871" r="2.871" transform="translate(624.486 948.481)" fill="#fff"/><path d="M1.318,0H22.93a1.307,1.307,0,0,1,1.318,1.3V43.539H0V1.3A1.307,1.307,0,0,1,1.318,0Z" transform="translate(615.553 903.292)" fill="#9183e9"/><path d="M7.8,1.3a3,3,0,0,1,3.548,0l.408.3A3,3,0,0,1,9.979,7.019H9.164A3,3,0,0,1,7.39,1.6Z" transform="translate(636.998 907.12) rotate(180)" fill="#fff"/><path d="M1.914,0A1.914,1.914,0,1,1,0,1.914,1.914,1.914,0,0,1,1.914,0Z" transform="translate(625.577 901.378)" fill="#9183e9"/><rect width="21.536" height="7.019" transform="translate(616.988 907.12)" fill="#fff" opacity="0.8"/><rect width="21.536" height="6.381" transform="translate(616.988 914.713)" fill="#fff" opacity="0.8"/><rect width="10.688" height="8.295" transform="translate(616.988 925.509)" fill="#fff" opacity="0.8"/><rect width="9.412" height="8.295" transform="translate(629.112 925.509)" fill="#fff" opacity="0.8"/><rect width="21.536" height="3.191" transform="translate(616.988 921.681)" fill="#fff" opacity="0.8"/><rect width="21.536" height="3.191" transform="translate(616.988 934.443)" fill="#fff" opacity="0.8"/><rect width="21.536" height="5.743" transform="translate(616.988 938.271)" fill="#fff" opacity="0.8"/></g><g transform="translate(141 -12)"><path d="M3.466,0H25.249a3.466,3.466,0,0,1,3.466,3.466V51.933A3.466,3.466,0,0,1,25.249,55.4H3.466A3.466,3.466,0,0,1,0,51.933V3.466A3.466,3.466,0,0,1,3.466,0Z" transform="translate(613 900.101)" fill="#3023af"/><line x2="28.076" transform="translate(613.319 943.057)" fill="none"/><circle cx="2.871" cy="2.871" r="2.871" transform="translate(624.486 948.481)" fill="#fff"/><path d="M1.318,0H22.93a1.307,1.307,0,0,1,1.318,1.3V43.539H0V1.3A1.307,1.307,0,0,1,1.318,0Z" transform="translate(615.553 903.292)" fill="#9183e9"/><path d="M7.8,1.3a3,3,0,0,1,3.548,0l.408.3A3,3,0,0,1,9.979,7.019H9.164A3,3,0,0,1,7.39,1.6Z" transform="translate(636.998 907.12) rotate(180)" fill="#fff"/><path d="M1.914,0A1.914,1.914,0,1,1,0,1.914,1.914,1.914,0,0,1,1.914,0Z" transform="translate(625.577 901.378)" fill="#9183e9"/><rect width="21.536" height="7.019" transform="translate(616.988 907.12)" fill="#fff" opacity="0.8"/><rect width="21.536" height="6.381" transform="translate(616.988 914.713)" fill="#fff" opacity="0.8"/><rect width="10.688" height="8.295" transform="translate(616.988 925.509)" fill="#fff" opacity="0.8"/><rect width="9.412" height="8.295" transform="translate(629.112 925.509)" fill="#fff" opacity="0.8"/><rect width="21.536" height="3.191" transform="translate(616.988 921.681)" fill="#fff" opacity="0.8"/><rect width="21.536" height="3.191" transform="translate(616.988 934.443)" fill="#fff" opacity="0.8"/><rect width="21.536" height="5.743" transform="translate(616.988 938.271)" fill="#fff" opacity="0.8"/></g><g transform="translate(-28.285 -88)"><line x2="23" transform="translate(756 1004.5)" fill="none" stroke="#3023af" stroke-width="2"/><path d="M5.5,0,11,10H0Z" transform="translate(783 998.5) rotate(90)" fill="#3023af"/></g></g></svg>